<?xml version="1.0" encoding="utf-8"?>
<svg xmlns="http://www.w3.org/2000/svg"
	xmlns:xlink="http://www.w3.org/1999/xlink"
	width="34px" height="34px" viewBox="0 0 34 34">
<path fillRule="evenodd" d="M 17.27 34C 8.04 34 0.55 26.45 0.55 17.13 0.55 7.82 8.04 0.26 17.27 0.26 26.51 0.26 34 7.82 34 17.13 34 26.45 26.51 34 17.27 34ZM 17.27 4.48C 10.35 4.48 4.73 10.14 4.73 17.13 4.73 24.12 10.35 29.78 17.27 29.78 24.2 29.78 29.82 24.12 29.82 17.13 29.82 10.14 24.2 4.48 17.27 4.48ZM 24.04 20.01C 23.86 20.45 23.63 20.88 23.37 21.28 23.1 21.67 22.8 22.04 22.47 22.37 22.14 22.7 21.77 23.01 21.38 23.27 20.99 23.54 20.57 23.77 20.13 23.96 19.69 24.15 19.23 24.29 18.75 24.39 18.27 24.49 17.77 24.54 17.27 24.54 16.78 24.54 16.28 24.49 15.79 24.39 15.32 24.29 14.86 24.15 14.41 23.96 13.98 23.77 13.56 23.54 13.17 23.27 12.78 23.01 12.41 22.7 12.08 22.37 11.75 22.04 11.45 21.67 11.18 21.28 10.92 20.88 10.69 20.45 10.51 20.01 10.32 19.57 10.17 19.1 10.08 18.62 9.98 18.14 9.93 17.63 9.93 17.13 9.93 16.63 9.98 16.13 10.08 15.64 10.17 15.16 10.32 14.7 10.51 14.25 10.69 13.81 10.92 13.38 11.18 12.99 11.45 12.6 11.75 12.23 12.08 11.89 12.41 11.56 12.78 11.25 13.17 10.99 13.56 10.72 13.98 10.49 14.41 10.31 14.86 10.12 15.32 9.97 15.79 9.87 16.28 9.77 16.78 9.72 17.27 9.72 17.77 9.72 18.27 9.77 18.75 9.87 19.23 9.97 19.69 10.12 20.13 10.31 20.57 10.49 20.99 10.72 21.38 10.99 21.77 11.25 22.14 11.56 22.47 11.89 22.8 12.23 23.1 12.6 23.37 12.99 23.63 13.38 23.86 13.81 24.04 14.25 24.23 14.7 24.37 15.16 24.47 15.64 24.57 16.13 24.62 16.63 24.62 17.13 24.62 17.63 24.57 18.14 24.47 18.62 24.37 19.1 24.23 19.57 24.04 20.01ZM 20.76 22.24C 21.06 22.03 21.36 21.78 21.62 21.52 21.9 21.24 22.15 20.93 22.37 20.6 22.59 20.27 22.79 19.91 22.94 19.55 23.1 19.17 23.22 18.78 23.3 18.38 23.32 18.29 23.33 18.19 23.34 18.1 23.29 18.08 23.22 18.06 23.14 18.04 23.13 18.04 23.12 18.04 23.11 18.03 22.93 17.99 22.69 17.94 22.41 17.89 22.41 17.89 22.41 17.89 22.41 17.89 21.69 17.77 20.66 17.69 19.56 17.86 20.31 19.94 20.65 21.67 20.76 22.24ZM 13.84 22.27C 14.17 22.5 14.52 22.69 14.88 22.85 15.25 23 15.64 23.13 16.03 23.21 16.44 23.29 16.86 23.33 17.27 23.33 17.69 23.33 18.11 23.29 18.51 23.21 18.91 23.13 19.3 23 19.67 22.85 19.68 22.84 19.69 22.83 19.7 22.83 19.58 22.15 19.21 20.31 18.38 18.15 18.37 18.16 18.36 18.16 18.34 18.17 17.97 18.3 17.63 18.45 17.3 18.6 17.25 18.62 17.21 18.64 17.16 18.67 16.86 18.82 16.58 18.97 16.32 19.13 16.27 19.17 16.22 19.2 16.18 19.23 15.93 19.39 15.69 19.55 15.48 19.72 15.45 19.75 15.42 19.77 15.38 19.8 15.17 19.97 14.97 20.15 14.79 20.32 14.79 20.32 14.79 20.32 14.79 20.32 14.62 20.49 14.46 20.66 14.32 20.82 14.3 20.84 14.28 20.87 14.26 20.89 14.13 21.04 14.02 21.18 13.92 21.31 13.91 21.33 13.89 21.36 13.87 21.38 13.78 21.51 13.7 21.62 13.64 21.72 13.63 21.74 13.62 21.75 13.61 21.77 13.56 21.86 13.51 21.95 13.48 22 13.59 22.1 13.71 22.19 13.84 22.27ZM 11.14 16.93C 11.13 17 11.13 17.06 11.13 17.13 11.13 17.55 11.17 17.97 11.25 18.38 11.33 18.78 11.45 19.17 11.61 19.55 11.76 19.91 11.95 20.27 12.18 20.6 12.33 20.82 12.51 21.02 12.69 21.22 12.73 21.16 12.79 21.06 12.86 20.95 12.88 20.93 12.89 20.92 12.9 20.9 12.98 20.79 13.07 20.66 13.18 20.52 13.2 20.49 13.22 20.46 13.24 20.44 13.36 20.29 13.49 20.13 13.63 19.96 13.66 19.94 13.68 19.91 13.7 19.89 13.86 19.71 14.03 19.53 14.23 19.34 14.42 19.15 14.63 18.97 14.85 18.78 14.89 18.75 14.92 18.73 14.95 18.7 15.17 18.52 15.41 18.35 15.65 18.19 15.7 18.16 15.75 18.13 15.8 18.09 16.05 17.93 16.32 17.78 16.61 17.63 16.65 17.61 16.7 17.59 16.74 17.57 17.05 17.43 17.37 17.29 17.71 17.18 17.79 17.15 17.87 17.13 17.95 17.11 17.79 16.75 17.63 16.39 17.44 16.03 14.91 16.79 12.46 16.92 11.47 16.93 11.47 16.93 11.47 16.93 11.47 16.93 11.33 16.93 11.21 16.93 11.14 16.93ZM 14.68 11.52C 14.39 11.65 14.1 11.81 13.84 11.99 13.51 12.21 13.21 12.47 12.93 12.75 12.65 13.03 12.4 13.33 12.18 13.66 11.95 14 11.76 14.35 11.61 14.72 11.46 15.08 11.34 15.45 11.26 15.83 11.33 15.83 11.42 15.83 11.53 15.82 11.53 15.82 11.54 15.82 11.54 15.82 11.76 15.82 12.08 15.81 12.46 15.78 12.46 15.78 12.46 15.78 12.46 15.78 13.42 15.72 14.81 15.57 16.35 15.2 16.35 15.2 16.35 15.2 16.35 15.2 16.54 15.15 16.73 15.11 16.93 15.05 15.97 13.34 14.96 11.91 14.68 11.52ZM 20.71 11.99C 20.38 11.77 20.03 11.57 19.67 11.42 19.3 11.26 18.91 11.14 18.51 11.06 18.11 10.97 17.69 10.93 17.27 10.93 16.86 10.93 16.44 10.97 16.03 11.06 15.98 11.07 15.93 11.08 15.88 11.1 16.18 11.51 17.2 12.93 18.14 14.66 18.38 14.57 18.61 14.47 18.82 14.37 18.83 14.37 18.83 14.37 18.84 14.37 20.34 13.66 21.1 12.8 21.33 12.5 21.13 12.32 20.93 12.14 20.71 11.99ZM 23.3 15.88C 23.22 15.48 23.1 15.09 22.94 14.72 22.79 14.35 22.59 14 22.37 13.66 22.27 13.51 22.14 13.38 22.02 13.24 21.77 13.55 20.94 14.46 19.37 15.26 19.36 15.27 19.34 15.28 19.32 15.29 19.1 15.4 18.87 15.5 18.62 15.61 18.77 15.91 18.91 16.22 19.04 16.53 19.09 16.65 19.13 16.75 19.17 16.86 19.4 16.83 19.62 16.81 19.84 16.8 19.88 16.8 19.91 16.8 19.95 16.79 20.14 16.78 20.32 16.78 20.5 16.78 20.54 16.78 20.57 16.78 20.6 16.78 20.81 16.78 21.01 16.78 21.21 16.79 21.22 16.79 21.24 16.79 21.25 16.79 21.43 16.8 21.6 16.81 21.76 16.82 21.8 16.83 21.84 16.83 21.88 16.83 22.04 16.85 22.19 16.86 22.33 16.88 22.34 16.88 22.35 16.88 22.36 16.88 22.52 16.9 22.65 16.92 22.78 16.94 22.81 16.94 22.84 16.94 22.87 16.95 22.97 16.96 23.05 16.98 23.13 16.99 23.15 16.99 23.18 17 23.2 17 23.29 17.02 23.36 17.03 23.42 17.04 23.41 16.65 23.37 16.26 23.3 15.88Z" fill="rgb(217,217,217)"/></svg>