<?xml version="1.0" encoding="utf-8"?>
<svg xmlns="http://www.w3.org/2000/svg"
	xmlns:xlink="http://www.w3.org/1999/xlink"
	width="35px" height="34px" viewBox="0 0 35 34">
<path fillRule="evenodd" d="M 17.54 33.74C 8.3 33.74 0.81 26.18 0.81 16.87 0.81 7.55 8.3 0 17.54 0 26.78 0 34.27 7.55 34.27 16.87 34.27 26.18 26.78 33.74 17.54 33.74ZM 17.54 4.22C 10.61 4.22 5 9.88 5 16.87 5 23.85 10.61 29.52 17.54 29.52 24.47 29.52 30.08 23.85 30.08 16.87 30.08 9.88 24.47 4.22 17.54 4.22ZM 18.02 13.53C 18.02 13.53 18.02 14.72 18.02 14.72 18.02 14.72 20.12 14.72 20.12 14.72 20.12 14.72 19.67 17.11 19.67 17.11 19.67 17.11 18.08 17.11 18.08 17.11 18.08 17.11 18.09 23.47 18.09 23.47 18.09 23.47 15.44 23.47 15.44 23.47 15.44 23.47 15.44 17.13 15.44 17.13 15.44 17.13 13.87 17.11 13.87 17.11 13.87 17.11 13.87 14.71 13.87 14.71 13.87 14.71 15.45 14.7 15.45 14.7 15.45 14.7 15.5 13.39 15.5 13.39 15.5 11.59 16.12 10.46 18.22 10.46 18.22 10.46 20.16 10.47 20.16 10.47 20.16 10.47 20.17 12.6 20.17 12.6 20.17 12.6 19.14 12.67 19.14 12.67 18.32 12.67 18.02 12.95 18.02 13.53Z" fill="rgb(217,217,217)"/></svg>