<?xml version="1.0" encoding="utf-8"?>
<svg xmlns="http://www.w3.org/2000/svg"
	xmlns:xlink="http://www.w3.org/1999/xlink"
	width="35px" height="34px" viewBox="0 0 35 34">
<path fillRule="evenodd" d="M 17.46 34C 8.22 34 0.73 26.45 0.73 17.13 0.73 7.82 8.22 0.26 17.46 0.26 26.7 0.26 34.19 7.82 34.19 17.13 34.19 26.45 26.7 34 17.46 34ZM 17.46 4.48C 10.53 4.48 4.92 10.14 4.92 17.13 4.92 24.12 10.53 29.78 17.46 29.78 24.39 29.78 30 24.12 30 17.13 30 10.14 24.39 4.48 17.46 4.48ZM 22.69 17.17C 22.69 17.17 21.63 17.16 21.63 17.16 21.63 17.16 21.65 15.01 21.65 15.01 21.65 15.01 19.52 15.01 19.52 15.01 19.52 15.01 19.52 13.95 19.52 13.95 19.52 13.95 21.62 13.95 21.62 13.95 21.62 13.95 21.62 11.84 21.62 11.84 21.62 11.84 22.71 11.83 22.71 11.83 22.71 11.83 22.72 14 22.72 14 22.72 14 24.77 14 24.77 14 24.77 14 24.77 15.01 24.77 15.01 24.77 15.01 22.69 15.01 22.69 15.01 22.69 15.01 22.69 17.17 22.69 17.17ZM 16.9 12.45C 17.68 12.75 18.1 13.67 18.1 14.62 18.1 15.41 17.66 16.1 17.05 16.58 16.45 17.05 16.33 17.25 16.33 17.65 16.33 18 16.98 18.58 17.31 18.82 18.3 19.52 18.62 20.18 18.62 21.26 18.62 22.62 17.31 23.97 14.96 23.97 12.89 23.97 11.14 23.12 11.14 21.77 11.14 20.39 12.71 19.03 14.78 19.03 15 19.03 15.23 19.05 15.45 19.05 15.16 18.78 14.98 18.49 14.98 18.07 14.98 17.82 15.02 17.53 15.13 17.31 15.02 17.32 14.9 17.32 14.78 17.32 13.09 17.32 11.95 16.11 11.95 14.6 11.95 13.12 13.52 11.84 15.19 11.84 16.12 11.84 18.91 11.84 18.91 11.84 18.91 11.84 18.08 12.45 18.08 12.45 18.08 12.45 16.9 12.45 16.9 12.45ZM 15.2 19.41C 13.77 19.39 12.49 20.29 12.49 21.36 12.49 22.46 13.52 23.37 14.95 23.37 16.96 23.37 17.66 22.51 17.66 21.42 17.66 21.29 17.64 21.16 17.61 21.03 17.46 20.41 16.9 20.1 16.12 19.56 15.84 19.47 15.53 19.41 15.2 19.41ZM 16.76 14.69C 16.6 13.42 15.68 12.4 14.72 12.37 13.76 12.34 13.12 13.32 13.29 14.59 13.45 15.86 14.36 16.91 15.32 16.94 16.28 16.97 16.93 15.96 16.76 14.69Z" fill="rgb(217,217,217)"/></svg>