<?xml version="1.0" encoding="utf-8"?>
<svg xmlns="http://www.w3.org/2000/svg"
	xmlns:xlink="http://www.w3.org/1999/xlink"
	width="35px" height="34px" viewBox="0 0 35 34">
<path fillRule="evenodd" d="M 17.65 34C 8.41 34 0.92 26.45 0.92 17.13 0.92 7.82 8.41 0.26 17.65 0.26 26.88 0.26 34.37 7.82 34.37 17.13 34.37 26.45 26.88 34 17.65 34ZM 17.65 4.48C 10.72 4.48 5.1 10.14 5.1 17.13 5.1 24.12 10.72 29.78 17.65 29.78 24.57 29.78 30.19 24.12 30.19 17.13 30.19 10.14 24.57 4.48 17.65 4.48ZM 18.73 20.72C 17.86 20.72 17.04 20.25 16.76 19.71 16.76 19.71 16.29 21.58 16.19 21.94 15.84 23.22 14.81 24.5 14.73 24.61 14.68 24.68 14.55 24.66 14.54 24.56 14.52 24.4 14.26 22.79 14.57 21.47 14.72 20.81 15.6 17.03 15.6 17.03 15.6 17.03 15.35 16.51 15.35 15.74 15.35 14.54 16.04 13.64 16.9 13.64 17.64 13.64 17.99 14.19 17.99 14.86 17.99 15.6 17.52 16.72 17.28 17.75 17.08 18.61 17.71 19.32 18.55 19.32 20.08 19.32 21.11 17.33 21.11 14.99 21.11 13.2 19.92 11.87 17.75 11.87 15.31 11.87 13.78 13.71 13.78 15.77 13.78 16.48 13.99 16.98 14.31 17.36 14.46 17.54 14.48 17.61 14.43 17.82 14.39 17.97 14.3 18.33 14.26 18.47 14.21 18.68 14.04 18.75 13.86 18.67 12.73 18.21 12.21 16.96 12.21 15.56 12.21 13.25 14.14 10.48 17.98 10.48 21.06 10.48 23.09 12.73 23.09 15.14 23.09 18.34 21.32 20.72 18.73 20.72Z" fill="rgb(217,217,217)"/></svg>