<?xml version="1.0" encoding="utf-8"?>
<svg xmlns="http://www.w3.org/2000/svg"
	xmlns:xlink="http://www.w3.org/1999/xlink"
	width="34px" height="34px" viewBox="0 0 34 34">
<path fillRule="evenodd" d="M 16.83 34C 7.59 34 0.11 26.45 0.11 17.13 0.11 7.82 7.59 0.26 16.83 0.26 26.07 0.26 33.56 7.82 33.56 17.13 33.56 26.45 26.07 34 16.83 34ZM 16.83 4.48C 9.9 4.48 4.29 10.14 4.29 17.13 4.29 24.12 9.9 29.78 16.83 29.78 23.76 29.78 29.38 24.12 29.38 17.13 29.38 10.14 23.76 4.48 16.83 4.48ZM 12.54 13.49C 12.54 13.49 12.54 11.51 12.54 11.51 18.17 11.51 22.74 16.11 22.74 21.79 22.74 21.79 20.77 21.79 20.77 21.79 20.77 17.21 17.08 13.49 12.54 13.49ZM 19.17 21.79C 19.17 21.79 17.2 21.79 17.2 21.79 17.2 19.2 15.11 17.09 12.54 17.09 12.54 17.09 12.54 15.11 12.54 15.11 16.2 15.11 19.17 18.1 19.17 21.79ZM 13.75 19.37C 14.41 19.37 14.95 19.91 14.95 20.58 14.95 21.25 14.41 21.79 13.75 21.79 13.08 21.79 12.54 21.25 12.54 20.58 12.54 19.91 13.08 19.37 13.75 19.37Z" fill="rgb(217,217,217)"/></svg>