<?xml version="1.0" encoding="utf-8"?>
<svg xmlns="http://www.w3.org/2000/svg"
	xmlns:xlink="http://www.w3.org/1999/xlink"
	width="34px" height="34px" viewBox="0 0 34 34">
<path fillRule="evenodd" d="M 16.73 33.74C 7.49 33.74 0 26.18 0 16.87 0 7.55 7.49 0 16.73 0 25.96 0 33.45 7.55 33.45 16.87 33.45 26.18 25.96 33.74 16.73 33.74ZM 16.73 4.22C 9.8 4.22 4.18 9.88 4.18 16.87 4.18 23.85 9.8 29.52 16.73 29.52 23.65 29.52 29.27 23.85 29.27 16.87 29.27 9.88 23.65 4.22 16.73 4.22ZM 21.87 14.65C 21.87 14.76 21.87 14.88 21.87 15 21.87 18.58 19.17 22.71 14.23 22.71 12.71 22.71 11.3 22.26 10.11 21.49 10.32 21.51 10.53 21.53 10.75 21.53 12.01 21.53 13.17 21.09 14.09 20.37 12.91 20.35 11.92 19.56 11.58 18.49 11.74 18.52 11.91 18.53 12.08 18.53 12.33 18.53 12.57 18.5 12.79 18.44 11.56 18.19 10.64 17.09 10.64 15.78 10.64 15.77 10.64 15.76 10.64 15.75 11 15.95 11.41 16.07 11.85 16.09 11.13 15.6 10.66 14.77 10.66 13.83 10.66 13.33 10.79 12.87 11.02 12.47 12.35 14.11 14.33 15.19 16.56 15.3 16.51 15.1 16.49 14.89 16.49 14.68 16.49 13.19 17.69 11.97 19.18 11.97 19.95 11.97 20.65 12.3 21.14 12.83 21.75 12.71 22.33 12.48 22.84 12.17 22.64 12.8 22.22 13.33 21.66 13.67 22.21 13.6 22.72 13.46 23.21 13.24 22.85 13.79 22.39 14.26 21.87 14.65Z" fill="rgb(0,186,244)"/></svg>