<?xml version="1.0" encoding="utf-8"?>
<svg xmlns="http://www.w3.org/2000/svg"
	xmlns:xlink="http://www.w3.org/1999/xlink"
	width="24px" height="16px" viewBox="0 0 24 16">
<path fillRule="evenodd" d="M 22.5 16.02C 22.5 16.02 1.5 16.02 1.5 16.02 0.67 16.02-0 15.35-0 14.52-0 14.52-0 3.73-0 3.73-0 3.73 11.09 10.77 11.09 10.77 11.53 11.11 12 11.06 11.99 11.06 12.44 11.06 12.87 10.8 12.97 10.73 12.95 10.74 12.93 10.75 12.9 10.78 12.9 10.78 24 3.7 24 3.7 24 3.7 24 14.52 24 14.52 24 15.35 23.33 16.02 22.5 16.02ZM 12.97 10.73C 13 10.71 13 10.71 12.97 10.73ZM-0 1.52C-0 0.69 0.67 0.02 1.5 0.02 1.5 0.02 22.5 0.02 22.5 0.02 23.33 0.02 24 0.69 24 1.52 24 1.52 11.99 9.05 11.99 9.05 11.99 9.05-0 1.52-0 1.52Z" fill="rgb(196,205,208)"/></svg>