<?xml version="1.0" encoding="utf-8"?>
<svg xmlns="http://www.w3.org/2000/svg"
	xmlns:xlink="http://www.w3.org/1999/xlink"
	width="32px" height="32px" viewBox="0 0 32 32">
<circle cx="16.00" cy="16.00" r="16.00" fill="rgb(77,107,169)"/><path fillRule="evenodd" d="M 19.67 9.06C 19.67 9.06 18.07 9.06 18.07 9.06 18.07 9.06 14.72 8.81 14.72 12.34 14.72 13.09 14.72 15.01 14.72 15.01 14.72 15.01 12.45 15.01 12.45 15.01 12.45 15.01 12.46 16.91 12.46 16.91 12.46 16.91 14.72 16.91 14.72 16.91 14.72 16.91 14.73 25 14.73 25 14.73 25 17 25 17 25 17 25 17 16.91 17 16.91 17 16.91 19.51 16.91 19.51 16.91 19.51 16.91 20.04 15.01 20.04 15.01 20.04 15.01 17.01 15.01 17.01 15.01 17.01 15.01 17.01 12.27 17.01 12.27 17.01 12.27 16.99 11.34 18.07 11.34 18.07 11.34 19.66 11.34 19.66 11.34 19.66 11.34 19.67 9.06 19.67 9.06Z" fill="rgb(255,255,255)"/></svg>