<?xml version="1.0" encoding="utf-8"?>
<svg xmlns="http://www.w3.org/2000/svg"
	xmlns:xlink="http://www.w3.org/1999/xlink"
	width="25px" height="22px" viewBox="0 0 25 22">
<path fillRule="evenodd" d="M 24.24 11.31C 24.24 11.31 13.44 0.46 13.44 0.46 12.9-0.08 11.98-0.08 11.39 0.46 11.39 0.46 0.59 11.31 0.59 11.31 0.05 11.91 0.21 12.34 1.02 12.34 1.02 12.34 3.29 12.34 3.29 12.34 3.29 12.34 3.29 20.71 3.29 20.71 3.29 21.3 3.34 21.79 4.42 21.79 4.42 21.79 9.66 21.79 9.66 21.79 9.66 21.79 9.66 13.42 9.66 13.42 9.66 13.42 15.17 13.42 15.17 13.42 15.17 13.42 15.17 21.79 15.17 21.79 15.17 21.79 20.67 21.79 20.67 21.79 21.54 21.79 21.54 21.3 21.54 20.71 21.54 20.71 21.54 12.34 21.54 12.34 21.54 12.34 23.81 12.34 23.81 12.34 24.62 12.34 24.83 11.91 24.24 11.31Z" fill="rgb(196,205,208)"/></svg>