<?xml version="1.0" encoding="utf-8"?>
<svg xmlns="http://www.w3.org/2000/svg"
	xmlns:xlink="http://www.w3.org/1999/xlink"
	width="16px" height="16px" viewBox="0 0 16 16">
<path fillRule="evenodd" d="M 13.03 16C 13.03 16 13.03 9.73 13.03 9.73 13.03 8.34 12.17 7.4 10.96 7.4 10.03 7.4 9.27 8.04 9.03 8.65 8.94 8.87 8.92 9.18 8.92 9.49 8.92 9.49 8.92 16 8.92 16 8.92 16 5.93 16 5.93 16 5.93 16 5.93 5.17 5.93 5.17 5.93 5.17 8.6 5.17 8.6 5.17 8.6 5.17 8.82 6.35 8.82 6.35 9.26 5.64 10.47 4.79 12.28 4.79 14.49 4.79 16.01 6.08 16.01 9.26 16.01 9.26 16.01 16 16.01 16 16.01 16 13.03 16 13.03 16ZM 2.57 3.67C 1.45 3.67 0.7 2.96 0.7 2 0.7 1 1.45 0.3 2.59 0.3 3.73 0.3 4.43 1 4.45 2 4.45 2.96 3.76 3.67 2.57 3.67ZM 4.06 16C 4.06 16 1.07 16 1.07 16 1.07 16 1.07 5.17 1.07 5.17 1.07 5.17 4.06 5.17 4.06 5.17 4.06 5.17 4.06 16 4.06 16Z" fill="rgb(255,255,255)"/></svg>