<?xml version="1.0" encoding="utf-8"?>
<svg xmlns="http://www.w3.org/2000/svg"
	xmlns:xlink="http://www.w3.org/1999/xlink"
	width="23px" height="23px" viewBox="0 0 23 23">
<path fillRule="evenodd" d="M 21.62 5.33C 21.57 5.38 21.44 5.51 21.29 5.66 21.29 5.66 17.18 1.76 17.18 1.76 17.44 1.5 17.6 1.34 17.63 1.31 17.84 1.1 18.62 0.41 19.68 0.41 20.36 0.41 21 0.69 21.57 1.25 22.23 1.87 22.57 2.55 22.58 3.25 22.59 3.96 22.27 4.66 21.62 5.33ZM 10.91 15.97C 10.85 16.03 10.77 16.07 10.69 16.1 10.05 16.29 6.16 17.55 6.12 17.56 6.07 17.58 6.01 17.59 5.96 17.59 5.82 17.59 5.68 17.53 5.58 17.43 5.44 17.29 5.38 17.08 5.44 16.89 5.45 16.85 6.61 13.08 6.83 12.23 6.86 12.14 6.91 12.05 6.97 11.99 6.97 11.99 13.72 5.23 16.48 2.46 16.48 2.46 20.58 6.37 20.58 6.37 17.94 9 11.24 15.64 10.91 15.97ZM 4.61 11.99C 4.48 12.46 3.97 14.15 3.23 16.58 2.95 17.49 3.2 18.47 3.86 19.12 4.34 19.6 4.89 19.81 5.57 19.81 5.82 19.81 6.07 19.77 6.36 19.68 6.49 19.64 10.09 18.58 10.7 18.39 11.1 18.28 11.46 18.06 11.77 17.77 12.03 17.51 15.96 13.67 18.99 10.67 18.99 10.67 18.97 21.46 18.97 21.46 18.97 22.29 18.3 23 17.48 23 17.48 23 1.33 23 1.33 23 0.51 23 0.01 22.24 0.01 21.42 0.01 21.42 0.01 4.4 0.01 4.4 0.01 3.58 0.51 3 1.33 3 1.33 3 13.12 3 13.12 3 13.12 3 5.26 10.86 5.25 10.87 4.94 11.19 4.72 11.58 4.61 11.99Z" fill="rgb(255,255,255)"/></svg>