<?xml version="1.0" encoding="utf-8"?>
<svg xmlns="http://www.w3.org/2000/svg"
	xmlns:xlink="http://www.w3.org/1999/xlink"
	width="23px" height="23px" viewBox="0 0 23 23">
<path fillRule="evenodd" d="M 4.63 20.45C 4.63 21.82 5.75 22.9 7.08 22.9 8.45 22.9 9.53 21.82 9.53 20.45 9.53 19.13 8.45 18 7.08 18 5.75 18 4.63 19.13 4.63 20.45ZM 16.88 20.45C 16.88 21.82 18 22.9 19.33 22.9 20.7 22.9 21.78 21.82 21.78 20.45 21.78 19.13 20.7 18 19.33 18 18 18 16.88 19.13 16.88 20.45ZM 8.99 14.67C 8.99 14.67 22.56 10.8 22.56 10.8 22.81 10.75 23 10.46 23 10.16 23 10.16 23 3.45 23 3.45 23 3.45 5.75 3.45 5.75 3.45 5.75 3.45 5.75 1.34 5.75 1.34 5.75 1.1 5.51 0.85 5.26 0.85 5.26 0.85 1.44 0.85 1.44 0.85 1.2 0.85 0.95 1.1 0.95 1.34 0.95 1.34 0.95 3.3 0.95 3.3 0.95 3.3 3.35 3.3 3.35 3.3 3.35 3.3 5.75 14.42 5.75 14.42 5.75 14.42 6 15.55 6 15.55 6 15.55 6 17.41 6 17.41 6 17.66 6.19 17.9 6.49 17.9 6.49 17.9 7.08 17.9 7.08 17.9 7.08 17.9 19.33 17.9 19.33 17.9 19.33 17.9 22.51 17.9 22.51 17.9 22.81 17.9 23 17.66 23 17.41 23 17.41 23 15.55 23 15.55 23 15.55 9.23 15.55 9.23 15.55 7.81 15.55 7.81 15.01 8.99 14.67Z" fill="rgb(196,205,208)"/></svg>