<?xml version="1.0" encoding="utf-8"?>
<svg xmlns="http://www.w3.org/2000/svg"
	xmlns:xlink="http://www.w3.org/1999/xlink"
	width="26px" height="16px" viewBox="0 0 26 16">
<path fillRule="evenodd" d="M 25.01 16C 25.01 16 21 16 21 16 21 16 21 14.41 21 14.41 21 13.21 20.09 12.52 19.64 12.25 18.56 11.38 18 9.71 18 8.76 18 8.76 18 6.78 18 6.78 18 5.46 19.14 4 20.89 4 22.64 4 24 5.46 24 6.78 24 6.78 24 8.76 24 8.76 24 9.63 23.57 11.38 22.46 12.27 22.46 12.27 24.98 13.9 24.98 13.9 24.98 13.9 26 14.44 26 15.11 26 15.11 26 15.56 26 15.56 26 16 25.45 16 25.01 16ZM 19.12 13.15C 19.12 13.15 20.1 13.55 20.1 14.41 20.1 14.41 20.1 15 20.1 15 20.1 15.57 19.64 16.03 19.07 16.03 19.07 16.03 7.04 16.03 7.04 16.03 6.47 16.03 6.01 15.57 6.01 15 6.01 15 6.01 14.41 6.01 14.41 6.01 13.54 7.08 13.04 7.08 13.04 7.08 13.04 11.2 10.72 11.2 10.72 9.76 9.56 8.93 7.28 8.93 6.16 8.93 6.16 8.93 3.58 8.93 3.58 8.93 1.87 10.78-0.03 13.06-0.03 15.33-0.03 16.9 1.87 16.9 3.58 16.9 3.58 16.9 6.16 16.9 6.16 16.9 7.39 16.08 9.6 14.65 10.73 14.65 10.73 19.12 13.15 19.12 13.15ZM 5 14.41C 5 14.41 5 16 5 16 5 16 0.99 16 0.99 16 0.55 16-0 16-0 15.56-0 15.56-0 15.11-0 15.11-0 14.44 1.02 13.87 1.02 13.87 1.02 13.87 3.54 12.27 3.54 12.27 2.43 11.38 2 9.63 2 8.76 2 8.76 2 6.78 2 6.78 2 5.46 3.36 4 5.11 4 6.86 4 8 5.46 8 6.78 8 6.78 8 8.76 8 8.76 8 9.71 7.44 11.38 6.36 12.25 5.91 12.52 5 13.21 5 14.41Z" fill="rgb(196,205,208)"/></svg>